# xmcd
#
# Track frame offsets:
# 150
# 15915
# 29997
# 41742
# 57617
# 72067
# 84575
# 97170
# 110947
# 125897
# 142802
# 156530
#
# Disc length: 2247 seconds
#
#
# Revision: 0
# Processed by: cddbd v1.5.2PL0 Copyright (c) Steve Scherf et al.
# Submitted via: FreeRIP 2.945 
#
DISCID=b608c50c
DTITLE=Peão Carreiro and Praiano - Os Diplomatas - Os diplomatas
DYEAR=1900
DGENRE=Sertanejo
TTITLE0=Pela porta da cozinha - Peão Carreiro - Mario Rebelo
TTITLE1=Laço de saudade - Moacyr dos Santos - João de Deus
TTITLE2=Uma noite não é nada - Lourival dos Santos - Praence e Luiz de Castro
TTITLE3=Porta do mundo - Peão Carreiro - Zé Paulo
TTITLE4=Esta noite com você - Peão Carreiro e Jesus Belmiro
TTITLE5=Quarto vizinho - Peão Carreiro e Praense
TTITLE6=Chifre nele - Peão Carreiro e Mizael
TTITLE7=Carreador - José Fortuna e Paraíso
TTITLE8=Estrela de ouro - Ronaldo Adriano e Tião Carreiro
TTITLE9=Festa de bravos - Peão Carreiro e Zé Paulo
TTITLE10=Vou tomar um pingão - Léo Canhoto
TTITLE11=Saudosa vida de peão - Tião Carreiro e Peão Carreiro
EXTD=
EXTT0=
EXTT1=
EXTT2=
EXTT3=
EXTT4=
EXTT5=
EXTT6=
EXTT7=
EXTT8=
EXTT9=
EXTT10=
EXTT11=
PLAYORDER=
